# xmcd
#
# Track frame offsets: 
#        150
#        10439
#        24551
#        45704
#        61312
#        74887
#        94120
#        114805
#        129873
#        145436
#
# Disc length: 2085 seconds
#
# Revision: 0
# Processed by: cddbd v1.5.2PL0 Copyright (c) Steve Scherf et al.
# Submitted via: ExactAudioCopy v1.0b4
#
DISCID=8b08230a
DTITLE=Downchild Blues Band - Blood Run Hot
DYEAR=1981
DGENRE=Blues, Modern Blues, Electric Blues
TTITLE0=Hey Hey Little Girl
TTITLE1=Rocket 88
TTITLE2=Could Have Had All Your Lovin'
TTITLE3=Natural Ball
TTITLE4=Drivin' Blues
TTITLE5=Blood Run Hot
TTITLE6=Nine Below Zero
TTITLE7=Shot Full of Love
TTITLE8=Let's Get High
TTITLE9=They Were Rockin'
EXTD=
EXTT0=
EXTT1=
EXTT2=
EXTT3=
EXTT4=
EXTT5=
EXTT6=
EXTT7=
EXTT8=
EXTT9=
PLAYORDER=
